<?xml version="1.0" encoding="UTF-8"?>
<svg xmlns="http://www.w3.org/2000/svg" xmlns:xlink="http://www.w3.org/1999/xlink" width="350px" height="75px" viewBox="0 0 349 75" version="1.1">
<g id="surface1">
<path style=" stroke:none;fill-rule:nonzero;fill:rgb(0%,0%,0%);fill-opacity:1;" d="M 14.117188 9.476562 L 6.039062 9.53125 L 6.089844 38.453125 L 6.140625 67.351562 L 14.375 67.351562 C 18.890625 67.351562 22.585938 67.273438 22.585938 67.144531 C 22.6875 59.675781 22.535156 9.65625 22.402344 9.558594 C 22.277344 9.476562 18.554688 9.425781 14.117188 9.476562 Z M 19.480469 12.359375 C 19.660156 12.359375 19.96875 12.773438 20.171875 13.265625 C 20.453125 13.960938 20.53125 15.710938 20.53125 21.867188 C 20.53125 26.503906 20.429688 29.644531 20.277344 29.746094 C 20.121094 29.828125 20.046875 36.085938 20.046875 46.179688 C 20.046875 55.144531 19.96875 62.664062 19.890625 62.898438 C 19.789062 63.15625 19.914062 63.332031 20.253906 63.4375 C 20.558594 63.511719 20.789062 63.695312 20.789062 63.820312 C 20.789062 64.285156 19.945312 64.414062 19.503906 64.003906 C 19.019531 63.5625 18.738281 63.722656 18.738281 64.414062 C 18.738281 65.007812 18.246094 65.292969 17.890625 64.929688 C 17.710938 64.75 16.273438 64.644531 13.835938 64.644531 C 10.195312 64.644531 10.011719 64.621094 9.296875 64.003906 L 8.554688 63.382812 L 8.578125 38.273438 C 8.605469 14.527344 8.628906 13.132812 9.0625 12.699219 C 9.453125 12.285156 10.066406 12.234375 13.65625 12.183594 C 16.171875 12.160156 17.890625 12.027344 18.046875 11.875 C 18.246094 11.667969 18.453125 11.71875 18.738281 11.976562 C 18.96875 12.183594 19.304688 12.359375 19.480469 12.359375 Z M 19.480469 12.359375 "/>
<path style=" stroke:none;fill-rule:nonzero;fill:rgb(0%,0%,0%);fill-opacity:1;" d="M 28.355469 9.941406 C 28.125 10.171875 27.972656 10.613281 28.023438 10.921875 C 28.097656 11.410156 28.253906 11.460938 30.152344 11.460938 C 31.28125 11.460938 32.328125 11.535156 32.488281 11.644531 C 32.667969 11.769531 32.71875 13.804688 32.636719 18.390625 C 32.511719 25.292969 32.5625 25.757812 33.644531 25.757812 C 33.894531 25.757812 34.179688 25.597656 34.285156 25.449219 C 34.410156 25.265625 34.460938 22.175781 34.410156 18.59375 C 34.359375 14.246094 34.433594 11.976562 34.617188 11.742188 C 34.820312 11.511719 35.460938 11.460938 36.898438 11.535156 C 39.054688 11.667969 39.390625 11.488281 39.082031 10.355469 C 38.898438 9.582031 38.488281 9.5 35.667969 9.789062 C 34.257812 9.914062 32.792969 9.992188 32.410156 9.914062 C 29.894531 9.53125 28.765625 9.53125 28.355469 9.941406 Z M 28.355469 9.941406 "/>
<path style=" stroke:none;fill-rule:nonzero;fill:rgb(0%,0%,0%);fill-opacity:1;" d="M 47.59375 9.789062 L 44.261719 9.914062 L 44.261719 25.523438 L 48.082031 25.574219 C 52.007812 25.625 52.597656 25.5 52.597656 24.59375 C 52.597656 23.878906 51.648438 23.511719 50.238281 23.71875 C 47.800781 24.078125 46.003906 24.003906 45.828125 23.539062 C 45.75 23.3125 45.667969 22.023438 45.667969 20.679688 L 45.667969 18.234375 L 48.90625 18.308594 C 51.78125 18.417969 52.1875 18.367188 52.445312 17.953125 C 52.648438 17.644531 52.648438 17.386719 52.445312 17.046875 C 52.1875 16.664062 51.78125 16.613281 48.90625 16.714844 L 45.644531 16.789062 L 45.726562 14.136719 L 45.800781 11.460938 L 48.234375 11.460938 C 49.574219 11.460938 50.855469 11.535156 51.082031 11.644531 C 51.546875 11.84375 52.597656 11.203125 52.597656 10.714844 C 52.597656 10.25 51.75 9.53125 51.289062 9.582031 C 51.082031 9.605469 49.441406 9.707031 47.59375 9.789062 Z M 47.59375 9.789062 "/>
<path style=" stroke:none;fill-rule:nonzero;fill:rgb(0%,0%,0%);fill-opacity:1;" d="M 64.914062 9.914062 C 64.554688 10.121094 64.089844 10.273438 63.863281 10.304688 C 63.089844 10.304688 60.652344 12.800781 60.039062 14.21875 C 59.191406 16.097656 59.167969 19.191406 59.933594 20.886719 C 60.730469 22.613281 62.164062 24.078125 63.9375 24.984375 C 66.039062 26.039062 68.578125 26.089844 70.609375 25.109375 C 72.09375 24.390625 74.40625 22.382812 74.40625 21.789062 C 74.40625 20.734375 72.992188 21.019531 71.507812 22.382812 C 69.992188 23.769531 69.476562 23.976562 67.527344 24.003906 C 65.554688 24.027344 64.269531 23.511719 62.964844 22.097656 C 61.164062 20.21875 60.707031 18.027344 61.550781 15.609375 C 63.191406 10.921875 68.628906 9.605469 71.65625 13.132812 C 72.398438 14.039062 72.65625 14.164062 73.582031 14.164062 C 74.171875 14.164062 74.65625 14.039062 74.65625 13.90625 C 74.65625 12.957031 72.015625 10.714844 70.042969 9.964844 C 68.601562 9.425781 65.8125 9.398438 64.914062 9.914062 Z M 64.914062 9.914062 "/>
<path style=" stroke:none;fill-rule:nonzero;fill:rgb(0%,0%,0%);fill-opacity:1;" d="M 81.636719 10.015625 C 81.535156 10.304688 81.507812 12.101562 81.585938 14.011719 C 81.660156 15.941406 81.660156 19.109375 81.585938 21.042969 C 81.40625 24.851562 81.609375 25.757812 82.609375 25.757812 C 83.457031 25.757812 83.613281 24.984375 83.457031 21.535156 L 83.304688 18.261719 L 86.996094 18.335938 L 90.695312 18.417969 L 90.695312 22.023438 C 90.695312 25.625 90.695312 25.625 91.308594 25.707031 C 91.644531 25.757812 92.027344 25.679688 92.179688 25.523438 C 92.460938 25.242188 92.542969 10.304688 92.257812 9.816406 C 91.976562 9.375 91.203125 9.476562 90.769531 9.964844 C 90.4375 10.355469 90.410156 10.871094 90.585938 13.390625 C 90.71875 15.015625 90.71875 16.429688 90.585938 16.5625 C 90.488281 16.664062 88.84375 16.714844 86.945312 16.6875 L 83.507812 16.613281 L 83.507812 13.390625 C 83.507812 11.617188 83.40625 10.015625 83.304688 9.839844 C 82.972656 9.351562 81.84375 9.449219 81.636719 10.015625 Z M 81.636719 10.015625 "/>
<path style=" stroke:none;fill-rule:nonzero;fill:rgb(0%,0%,0%);fill-opacity:1;" d="M 100.335938 9.992188 C 99.980469 10.664062 99.980469 25.421875 100.3125 25.625 C 100.464844 25.730469 100.902344 25.730469 101.261719 25.625 L 101.929688 25.472656 L 101.777344 19.03125 C 101.644531 13.523438 101.671875 12.617188 102.003906 12.617188 C 102.210938 12.617188 102.492188 12.929688 102.644531 13.316406 C 102.777344 13.730469 103.621094 15.21875 104.492188 16.6875 C 105.367188 18.160156 106.214844 19.546875 106.339844 19.78125 C 106.773438 20.527344 107.597656 21.765625 107.75 21.890625 C 108.03125 22.175781 109.546875 24.777344 109.546875 25.007812 C 109.546875 25.367188 110.828125 25.78125 111.371094 25.625 C 111.652344 25.523438 111.855469 25.316406 111.855469 25.164062 C 111.90625 15.273438 111.855469 10.015625 111.726562 9.789062 C 111.496094 9.425781 110.316406 9.449219 110.289062 9.839844 C 110.1875 10.789062 110.339844 19.679688 110.472656 21.042969 C 110.597656 22.433594 110.570312 22.664062 110.214844 22.664062 C 109.980469 22.664062 109.671875 22.40625 109.546875 22.074219 C 109.289062 21.476562 109.164062 21.277344 107.957031 19.367188 C 107.546875 18.75 107.238281 18.210938 107.238281 18.132812 C 107.238281 18.054688 106.441406 16.765625 105.492188 15.25 C 104.519531 13.730469 103.417969 11.949219 103.003906 11.253906 C 102.027344 9.558594 100.878906 9.015625 100.335938 9.992188 Z M 100.335938 9.992188 "/>
<path style=" stroke:none;fill-rule:nonzero;fill:rgb(0%,0%,0%);fill-opacity:1;" d="M 119.832031 9.890625 C 119.628906 10.121094 119.550781 12.441406 119.605469 17.769531 C 119.679688 24.625 119.730469 25.339844 120.140625 25.597656 C 120.421875 25.78125 120.707031 25.804688 120.988281 25.625 C 121.347656 25.398438 121.398438 24.46875 121.398438 17.695312 C 121.398438 13.496094 121.320312 9.941406 121.222656 9.789062 C 120.988281 9.425781 120.164062 9.476562 119.832031 9.890625 Z M 119.832031 9.890625 "/>
<path style=" stroke:none;fill-rule:nonzero;fill:rgb(0%,0%,0%);fill-opacity:1;" d="M 131.351562 9.863281 C 129.816406 10.585938 128.785156 12.207031 128.785156 13.878906 C 128.785156 15.015625 128.890625 15.25 129.890625 16.28125 C 130.65625 17.078125 131.457031 17.5625 132.6875 17.976562 C 135.355469 18.90625 136.175781 20.21875 135.429688 22.355469 C 135.070312 23.414062 134.171875 23.953125 132.839844 23.953125 C 131.457031 23.925781 130.605469 23.253906 130.40625 22.023438 C 130.222656 20.96875 129.507812 20.503906 128.707031 20.910156 C 128.351562 21.09375 128.273438 21.324219 128.402344 21.839844 C 128.734375 23.230469 129.402344 24.285156 130.40625 25.007812 C 131.761719 25.988281 133.890625 26.0625 135.226562 25.164062 C 136.328125 24.441406 137.507812 22.175781 137.507812 20.785156 C 137.507812 18.59375 136.402344 17.386719 133.457031 16.332031 C 131.6875 15.683594 130.324219 14.550781 130.324219 13.703125 C 130.324219 13.1875 130.964844 12.183594 131.738281 11.535156 C 132.914062 10.53125 134.789062 11.277344 135.328125 12.957031 C 135.535156 13.648438 135.710938 13.78125 136.351562 13.78125 C 136.945312 13.78125 137.152344 13.648438 137.203125 13.214844 C 137.328125 12.308594 136.097656 10.457031 135.070312 9.964844 C 134.019531 9.476562 132.300781 9.425781 131.351562 9.863281 Z M 131.351562 9.863281 "/>
<path style=" stroke:none;fill-rule:nonzero;fill:rgb(0%,0%,0%);fill-opacity:1;" d="M 149.308594 9.914062 C 148.949219 10.121094 148.460938 10.273438 148.230469 10.304688 C 147.5625 10.304688 145.023438 12.957031 144.4375 14.269531 C 143.664062 15.964844 143.714844 19.472656 144.511719 21.09375 C 145.332031 22.820312 147.386719 24.75 148.925781 25.316406 C 150.542969 25.882812 153.285156 25.882812 154.589844 25.339844 C 155.824219 24.828125 158.800781 22.484375 158.800781 22.023438 C 158.800781 21.839844 158.621094 21.558594 158.414062 21.375 C 157.953125 20.992188 156.773438 21.402344 156.054688 22.199219 C 154.929688 23.488281 153.671875 24.003906 151.773438 24.027344 C 150.234375 24.027344 149.769531 23.925781 148.902344 23.386719 C 147.71875 22.613281 146.304688 21.09375 145.945312 20.164062 C 145.5625 19.109375 145.664062 15.789062 146.128906 14.859375 C 146.769531 13.597656 148.285156 12.132812 149.542969 11.5625 C 151.824219 10.5625 153.925781 11.101562 156.3125 13.316406 C 157.519531 14.445312 158.160156 14.578125 158.902344 13.90625 C 159.441406 13.390625 156.671875 10.820312 154.722656 10.046875 C 153.132812 9.425781 150.285156 9.351562 149.308594 9.914062 Z M 149.308594 9.914062 "/>
<path style=" stroke:none;fill-rule:nonzero;fill:rgb(0%,0%,0%);fill-opacity:1;" d="M 166.339844 9.816406 C 166.238281 9.992188 166.164062 13.597656 166.164062 17.875 L 166.136719 25.625 L 167.90625 25.625 L 167.90625 18.417969 L 174.832031 18.417969 L 174.882812 21.507812 C 174.910156 23.207031 174.933594 24.851562 174.960938 25.164062 C 174.960938 25.597656 175.117188 25.757812 175.574219 25.757812 C 175.910156 25.757812 176.296875 25.597656 176.421875 25.421875 C 176.707031 25.058594 176.679688 10.304688 176.398438 9.839844 C 176.117188 9.375 175.21875 9.476562 175.039062 9.964844 C 174.933594 10.199219 174.859375 11.792969 174.859375 13.523438 L 174.832031 16.613281 L 167.90625 16.613281 L 167.90625 13.390625 C 167.90625 11.617188 167.804688 10.015625 167.703125 9.839844 C 167.445312 9.449219 166.597656 9.425781 166.339844 9.816406 Z M 166.339844 9.816406 "/>
<path style=" stroke:none;fill-rule:nonzero;fill:rgb(0%,0%,0%);fill-opacity:1;" d="M 184.808594 9.992188 C 184.558594 10.222656 184.476562 12.078125 184.476562 17.59375 C 184.476562 21.609375 184.558594 25.007812 184.660156 25.164062 C 184.761719 25.316406 186.300781 25.472656 188.65625 25.523438 C 192.070312 25.625 192.511719 25.574219 192.761719 25.164062 C 192.96875 24.851562 192.96875 24.59375 192.761719 24.261719 C 192.511719 23.878906 192.097656 23.820312 189.507812 23.902344 C 187.765625 23.953125 186.507812 23.902344 186.402344 23.746094 C 186.171875 23.363281 186.015625 18.90625 186.25 18.542969 C 186.402344 18.308594 187.25 18.234375 189.457031 18.308594 C 192.121094 18.417969 192.511719 18.367188 192.761719 17.953125 C 192.96875 17.644531 192.96875 17.386719 192.761719 17.046875 C 192.511719 16.664062 192.046875 16.613281 189.300781 16.613281 L 186.117188 16.613281 L 186.117188 14.21875 C 186.09375 11.203125 186.09375 11.203125 189.738281 11.4375 C 191.917969 11.5625 192.429688 11.511719 192.761719 11.179688 C 193.070312 10.871094 193.097656 10.664062 192.917969 10.273438 C 192.613281 9.707031 192.917969 9.734375 188.582031 9.707031 C 186.117188 9.65625 185.042969 9.757812 184.808594 9.992188 Z M 184.808594 9.992188 "/>
<path style=" stroke:none;fill-rule:nonzero;fill:rgb(0%,0%,0%);fill-opacity:1;" d="M 201.355469 9.65625 C 201.15625 9.839844 201.355469 13.730469 201.5625 13.878906 C 201.691406 13.960938 207.949219 13.988281 215.496094 13.90625 C 223.03125 13.832031 229.371094 13.855469 229.550781 13.9375 C 229.808594 14.039062 229.859375 18.933594 229.835938 39.304688 C 229.808594 53.160156 229.757812 65.160156 229.757812 65.933594 L 229.726562 67.351562 L 231.625 67.429688 C 232.683594 67.480469 233.632812 67.402344 233.757812 67.273438 C 234.089844 66.9375 234.015625 16.148438 233.679688 15.273438 C 233.140625 13.855469 232.910156 13.878906 247.328125 13.9375 C 254.589844 13.960938 260.921875 13.988281 261.410156 14.011719 L 262.308594 14.039062 L 262.359375 11.769531 L 262.386719 9.53125 L 231.933594 9.53125 C 215.1875 9.53125 201.414062 9.582031 201.355469 9.65625 Z M 233.191406 12.617188 C 233.191406 12.875 232.269531 13.90625 232.039062 13.90625 C 231.960938 13.90625 231.910156 13.546875 231.910156 13.132812 C 231.910156 12.492188 232.015625 12.359375 232.550781 12.359375 C 232.910156 12.359375 233.191406 12.464844 233.191406 12.617188 Z M 233.191406 12.617188 "/>
<path style=" stroke:none;fill-rule:nonzero;fill:rgb(0%,0%,0%);fill-opacity:1;" d="M 282.703125 9.707031 C 282.679688 9.839844 282.703125 15.890625 282.703125 23.207031 L 282.730469 36.496094 L 274.3125 36.46875 L 265.902344 36.445312 L 265.851562 38.429688 C 265.824219 39.792969 265.902344 40.433594 266.109375 40.460938 C 266.285156 40.460938 270.082031 40.460938 274.570312 40.433594 L 282.730469 40.410156 L 282.703125 53.625 C 282.703125 60.886719 282.703125 66.988281 282.703125 67.171875 C 282.703125 67.429688 283.214844 67.480469 284.753906 67.429688 L 286.835938 67.351562 L 286.886719 38.429688 L 286.933594 9.53125 L 284.835938 9.53125 C 283.652344 9.53125 282.703125 9.605469 282.703125 9.707031 Z M 284.371094 37.941406 C 284.527344 38.480469 284.164062 39.917969 283.886719 39.917969 C 283.601562 39.917969 283.320312 38.429688 283.496094 37.914062 C 283.78125 37.191406 284.195312 37.191406 284.371094 37.941406 Z M 284.371094 37.941406 "/>
<path style=" stroke:none;fill-rule:nonzero;fill:rgb(0%,0%,0%);fill-opacity:1;" d="M 291.167969 9.582031 C 291.167969 9.632812 291.167969 22.640625 291.167969 38.503906 L 291.140625 67.351562 L 307.710938 67.351562 L 307.769531 39.226562 C 307.792969 23.746094 307.820312 10.894531 307.84375 10.636719 C 307.96875 9.5 308.226562 9.53125 299.507812 9.53125 C 294.914062 9.53125 291.167969 9.558594 291.167969 9.582031 Z M 304.53125 12.59375 L 305.148438 13.082031 L 305.230469 37.707031 C 305.277344 54.835938 305.199219 62.640625 305.023438 63.382812 C 304.816406 64.128906 304.558594 64.492188 304.046875 64.671875 C 303.023438 65.085938 295.09375 64.902344 294.222656 64.46875 L 293.503906 64.105469 L 293.503906 39.070312 C 293.503906 13.367188 293.53125 12.542969 294.480469 12.285156 C 294.710938 12.207031 296.914062 12.160156 299.402344 12.132812 C 303.507812 12.101562 303.996094 12.160156 304.53125 12.59375 Z M 304.53125 12.59375 "/>
<path style=" stroke:none;fill-rule:nonzero;fill:rgb(0%,0%,0%);fill-opacity:1;" d="M 311.074219 11.511719 C 311.125 12.617188 311.152344 13.679688 311.152344 13.832031 C 311.175781 14.0625 311.691406 14.164062 312.816406 14.164062 C 315.332031 14.164062 318.695312 15.09375 321.824219 16.636719 C 325.699219 18.542969 328.160156 20.554688 330.726562 23.851562 C 332.75 26.476562 334.625 30.46875 335.035156 33.09375 C 335.140625 33.792969 335.367188 34.714844 335.523438 35.105469 C 335.933594 36.1875 335.882812 40.691406 335.417969 41.980469 C 335.214844 42.570312 335.035156 43.5 335.035156 44.015625 C 335.035156 44.53125 334.855469 45.171875 334.648438 45.429688 C 334.441406 45.71875 334.265625 46.128906 334.265625 46.359375 C 334.265625 46.773438 334.160156 47.058594 333.085938 49.320312 C 331.59375 52.4375 327.90625 56.632812 324.925781 58.570312 C 323.617188 59.417969 319.851562 61.296875 319.460938 61.296875 C 319.261719 61.296875 318.71875 61.453125 318.285156 61.660156 C 317.335938 62.070312 314.796875 62.585938 312.589844 62.816406 L 311.050781 62.972656 L 311.074219 65.160156 L 311.074219 67.351562 L 311.867188 67.429688 C 312.308594 67.480469 313.359375 67.328125 314.207031 67.121094 C 315.050781 66.886719 316.128906 66.707031 316.589844 66.707031 C 317.078125 66.679688 317.746094 66.523438 318.105469 66.320312 C 318.460938 66.113281 319.027344 65.957031 319.335938 65.933594 C 319.667969 65.933594 320.261719 65.78125 320.617188 65.601562 C 321.003906 65.394531 321.773438 65.035156 322.335938 64.777344 C 328.746094 61.917969 334.316406 56.765625 337.007812 51.203125 C 339.371094 46.386719 339.910156 44.324219 340.089844 39.277344 C 340.214844 36.136719 339.9375 33.558594 339.265625 31.398438 C 339.0625 30.726562 338.882812 30.027344 338.882812 29.828125 C 338.882812 29.621094 338.546875 28.765625 338.113281 27.941406 C 337.703125 27.121094 337.339844 26.347656 337.339844 26.222656 C 337.339844 25.78125 334.957031 22.199219 333.417969 20.320312 C 331.777344 18.308594 328.570312 15.453125 326.878906 14.550781 C 326.363281 14.246094 325.441406 13.703125 324.851562 13.316406 C 324.234375 12.929688 323.671875 12.617188 323.59375 12.617188 C 323.492188 12.617188 322.667969 12.257812 321.773438 11.84375 C 320.902344 11.410156 319.902344 11.078125 319.566406 11.078125 C 319.234375 11.078125 318.746094 10.894531 318.460938 10.6875 C 318.203125 10.480469 317.5625 10.304688 317.054688 10.304688 C 316.539062 10.304688 315.5625 10.121094 314.871094 9.914062 C 314.179688 9.707031 313.023438 9.53125 312.308594 9.53125 L 311.023438 9.53125 Z M 311.074219 11.511719 "/>
<path style=" stroke:none;fill-rule:nonzero;fill:rgb(0%,0%,0%);fill-opacity:1;" d="M 217.417969 17.4375 L 209.722656 17.511719 L 209.773438 42.445312 L 209.800781 67.351562 L 226.292969 67.351562 L 226.292969 42.519531 C 226.269531 17.078125 226.269531 17.128906 225.371094 17.335938 C 225.238281 17.359375 221.648438 17.410156 217.417969 17.4375 Z M 223.289062 20.605469 C 223.648438 20.9375 223.703125 23.695312 223.753906 41.980469 C 223.832031 62.535156 223.832031 63 223.316406 63.820312 C 223.03125 64.285156 222.574219 64.726562 222.289062 64.800781 C 221.597656 64.984375 214.59375 64.75 213.414062 64.519531 C 212.488281 64.335938 212.464844 64.285156 212.3125 63.023438 C 212.238281 62.277344 212.183594 52.644531 212.238281 41.570312 L 212.289062 21.476562 L 213.054688 20.761719 L 213.828125 20.039062 L 218.367188 20.140625 C 222.007812 20.195312 222.980469 20.296875 223.289062 20.605469 Z M 223.289062 20.605469 "/>
<path style=" stroke:none;fill-rule:nonzero;fill:rgb(0%,0%,0%);fill-opacity:1;" d="M 245.867188 17.5625 C 245.789062 17.667969 245.738281 28.898438 245.738281 42.519531 L 245.738281 67.273438 L 262.054688 67.273438 L 262.179688 42.601562 C 262.261719 29 262.234375 17.796875 262.152344 17.695312 C 261.953125 17.4375 246.023438 17.304688 245.867188 17.5625 Z M 258.5625 20.246094 C 259.179688 20.371094 259.386719 20.578125 259.539062 21.21875 C 259.664062 21.660156 259.695312 31.367188 259.613281 42.804688 C 259.488281 62.300781 259.460938 63.613281 259.023438 64.054688 C 258.640625 64.46875 258 64.519531 254.28125 64.59375 C 249.511719 64.671875 248.894531 64.519531 248.535156 63.230469 C 248.378906 62.640625 248.253906 56.226562 248.328125 51.511719 C 248.328125 50.816406 248.355469 26.140625 248.328125 25.5 C 248.328125 25.292969 248.304688 24.367188 248.277344 23.4375 C 248.226562 21.375 248.429688 20.421875 249.046875 20.269531 C 249.738281 20.089844 257.664062 20.0625 258.5625 20.246094 Z M 258.5625 20.246094 "/>
<path style=" stroke:none;fill-rule:nonzero;fill:rgb(0%,0%,0%);fill-opacity:1;" d="M 51.828125 29.878906 C 51.621094 30.003906 51.214844 30.136719 50.929688 30.136719 C 50.289062 30.136719 48.675781 30.984375 47.441406 31.964844 C 46.902344 32.371094 46.183594 33.378906 45.726562 34.332031 C 45.003906 35.773438 44.902344 36.261719 44.902344 38.066406 C 44.902344 39.226562 45.003906 40.203125 45.132812 40.285156 C 45.261719 40.359375 45.441406 40.796875 45.519531 41.257812 C 45.726562 42.371094 47.417969 44.324219 48.957031 45.226562 C 50.03125 45.871094 50.417969 45.945312 52.597656 45.976562 C 55.519531 45.976562 56.804688 45.460938 58.574219 43.578125 C 60.957031 40.976562 61.472656 37.242188 59.859375 34.125 C 59.394531 33.226562 57.46875 31.164062 57.113281 31.164062 C 56.984375 31.164062 56.675781 31.007812 56.46875 30.828125 C 56.085938 30.492188 53.1875 29.621094 52.546875 29.621094 C 52.363281 29.621094 52.03125 29.746094 51.828125 29.878906 Z M 54.777344 31.882812 C 55.910156 32.195312 57.601562 33.6875 58.21875 34.847656 C 59.808594 37.964844 58.859375 41.621094 55.960938 43.632812 C 54.984375 44.324219 54.675781 44.40625 52.878906 44.40625 C 50.722656 44.40625 49.855469 44.042969 48.367188 42.570312 C 47.390625 41.597656 46.441406 39.355469 46.441406 38.015625 C 46.441406 35.980469 47.851562 33.558594 49.675781 32.429688 C 50.597656 31.859375 53.136719 31.367188 53.878906 31.601562 C 54.085938 31.679688 54.496094 31.808594 54.777344 31.882812 Z M 54.777344 31.882812 "/>
<path style=" stroke:none;fill-rule:nonzero;fill:rgb(0%,0%,0%);fill-opacity:1;" d="M 123.785156 30.027344 C 121.039062 30.675781 119.296875 32.066406 118.039062 34.640625 C 116.21875 38.375 117.550781 42.675781 121.269531 45.046875 C 122.730469 45.976562 122.785156 45.976562 125.503906 45.976562 C 127.734375 45.976562 128.324219 45.871094 128.707031 45.511719 C 128.992188 45.277344 129.324219 45.070312 129.457031 45.070312 C 129.941406 45.070312 132.171875 42.496094 132.019531 42.113281 C 131.789062 41.464844 130.558594 41.648438 129.839844 42.46875 C 128.707031 43.734375 127.167969 44.375 125.246094 44.375 C 123.144531 44.40625 121.757812 43.757812 120.523438 42.1875 C 118.808594 40 118.523438 37.550781 119.679688 35.230469 C 120.320312 33.945312 120.628906 33.585938 121.65625 32.761719 C 122.195312 32.324219 124.65625 31.421875 125.269531 31.421875 C 126.402344 31.421875 128.375 32.324219 129.53125 33.378906 C 130.765625 34.515625 131.40625 34.714844 132.097656 34.28125 C 132.636719 33.917969 132.300781 33.378906 130.582031 31.964844 C 129.507812 31.058594 128.582031 30.542969 127.558594 30.238281 C 125.375 29.644531 125.453125 29.644531 123.785156 30.027344 Z M 123.785156 30.027344 "/>
<path style=" stroke:none;fill-rule:nonzero;fill:rgb(0%,0%,0%);fill-opacity:1;" d="M 71.402344 30.238281 C 69.144531 30.851562 67.144531 32.996094 66.167969 35.878906 C 65.578125 37.574219 65.578125 38.398438 66.144531 40.175781 C 66.960938 42.726562 67.683594 43.683594 70.015625 45.226562 C 71.066406 45.921875 71.324219 45.976562 73.605469 45.976562 C 76.53125 45.976562 77.761719 45.484375 79.867188 43.5 C 80.96875 42.46875 81.125 42.210938 80.816406 41.980469 C 80.101562 41.492188 79.152344 41.699219 78.351562 42.519531 C 76.996094 43.964844 76.097656 44.347656 74.070312 44.375 C 71.757812 44.429688 70.195312 43.734375 69.015625 42.085938 C 68.21875 40.949219 67.476562 38.996094 67.476562 37.914062 C 67.476562 35.488281 69.632812 32.628906 72.066406 31.832031 C 73.222656 31.472656 73.632812 31.449219 74.863281 31.679688 C 76.582031 32.039062 77.355469 32.480469 78.328125 33.636719 C 78.894531 34.308594 79.253906 34.515625 79.917969 34.515625 C 81.25 34.515625 81.226562 33.894531 79.761719 32.503906 C 77.304688 30.136719 74.554688 29.386719 71.402344 30.238281 Z M 71.402344 30.238281 "/>
<path style=" stroke:none;fill-rule:nonzero;fill:rgb(0%,0%,0%);fill-opacity:1;" d="M 87.253906 30.136719 C 86.996094 30.261719 86.921875 32.140625 86.921875 37.988281 C 86.921875 45.921875 86.972656 46.335938 87.945312 45.976562 C 88.152344 45.894531 88.386719 45.84375 88.511719 45.84375 C 88.613281 45.84375 88.6875 44.25 88.664062 42.3125 L 88.636719 38.8125 L 92.179688 38.789062 L 95.691406 38.761719 L 95.691406 42.289062 C 95.691406 45.484375 95.746094 45.820312 96.183594 45.976562 C 97.390625 46.359375 97.390625 46.335938 97.363281 38.117188 C 97.363281 30.054688 97.28125 29.671875 96.234375 30.003906 C 95.746094 30.160156 95.691406 30.394531 95.640625 33.660156 L 95.566406 37.167969 L 92.308594 37.140625 C 90.511719 37.140625 88.921875 37.058594 88.769531 36.960938 C 88.5625 36.828125 88.488281 35.746094 88.5625 33.558594 C 88.636719 30.46875 88.613281 30.3125 88.101562 30.136719 C 87.820312 30.003906 87.4375 30.003906 87.253906 30.136719 Z M 87.253906 30.136719 "/>
<path style=" stroke:none;fill-rule:nonzero;fill:rgb(0%,0%,0%);fill-opacity:1;" d="M 106.367188 30.136719 C 104.625 30.675781 103.3125 32.8125 103.570312 34.714844 C 103.777344 36.261719 104.875 37.34375 107.109375 38.195312 C 108.109375 38.582031 109.238281 39.171875 109.671875 39.511719 C 110.371094 40.050781 110.421875 40.257812 110.421875 41.597656 C 110.394531 42.859375 110.289062 43.140625 109.671875 43.683594 C 109.136719 44.148438 108.648438 44.300781 107.75 44.300781 C 106.160156 44.300781 105.234375 43.601562 105.132812 42.3125 C 105.082031 41.546875 104.925781 41.339844 104.367188 41.183594 C 102.542969 40.691406 102.644531 42.960938 104.542969 44.8125 C 105.46875 45.71875 105.824219 45.894531 107.03125 46.027344 C 107.832031 46.101562 108.832031 46.050781 109.339844 45.871094 C 111.929688 45.019531 113.113281 40.433594 111.265625 38.429688 C 110.570312 37.683594 109.597656 37.167969 108.007812 36.675781 C 107.316406 36.46875 106.417969 35.980469 105.984375 35.570312 C 105.316406 34.925781 105.183594 34.640625 105.265625 33.894531 C 105.316406 33.378906 105.519531 32.789062 105.699219 32.582031 C 106.132812 32.039062 107.339844 31.421875 107.90625 31.421875 C 108.648438 31.421875 110.0625 32.6875 110.0625 33.328125 C 110.0625 34.101562 110.648438 34.589844 111.34375 34.382812 C 111.726562 34.257812 111.855469 34 111.855469 33.328125 C 111.855469 32.835938 111.753906 32.453125 111.597656 32.453125 C 111.472656 32.453125 111.34375 32.296875 111.34375 32.089844 C 111.34375 31.550781 110.238281 30.492188 109.316406 30.1875 C 108.316406 29.828125 107.441406 29.828125 106.367188 30.136719 Z M 106.367188 30.136719 "/>
<path style=" stroke:none;fill-rule:nonzero;fill:rgb(0%,0%,0%);fill-opacity:1;" d="M 138.382812 30.160156 C 138.277344 30.34375 138.203125 33.894531 138.203125 38.066406 C 138.203125 46.386719 138.203125 46.410156 139.691406 45.84375 C 140.25 45.636719 140.332031 45.484375 140.226562 44.761719 C 139.867188 42.519531 139.792969 39.203125 140.074219 39.019531 C 140.308594 38.863281 145.4375 38.761719 146.976562 38.863281 C 147.253906 38.890625 147.285156 39.535156 147.128906 42.371094 L 146.976562 45.84375 L 149 45.84375 L 149 38.089844 C 149 29.746094 149.027344 29.902344 147.667969 30.238281 L 147.027344 30.394531 L 147.179688 33.710938 L 147.335938 37.058594 L 144.023438 37.140625 C 142.207031 37.191406 140.507812 37.140625 140.28125 37.011719 C 139.894531 36.828125 139.84375 36.496094 139.917969 34.175781 C 140 32.738281 140.101562 31.367188 140.199219 31.140625 C 140.308594 30.851562 140.148438 30.570312 139.765625 30.285156 C 139.074219 29.796875 138.636719 29.773438 138.382812 30.160156 Z M 138.382812 30.160156 "/>
<path style=" stroke:none;fill-rule:nonzero;fill:rgb(0%,0%,0%);fill-opacity:1;" d="M 155.539062 30.1875 C 155.390625 30.394531 155.363281 33.042969 155.4375 37.011719 L 155.597656 43.476562 L 156.386719 44.480469 C 157.46875 45.820312 159.285156 46.410156 161.292969 46.101562 C 162.699219 45.871094 163.242188 45.5625 164.339844 44.300781 C 165.1875 43.34375 165.496094 41.054688 165.445312 35.980469 C 165.445312 33.535156 165.496094 31.34375 165.597656 31.109375 C 165.699219 30.828125 165.546875 30.542969 165.082031 30.238281 C 164.46875 29.828125 164.367188 29.828125 164.007812 30.210938 C 163.648438 30.542969 163.597656 31.5 163.574219 36.496094 C 163.546875 41.828125 163.492188 42.445312 163.058594 43.191406 C 162.210938 44.582031 160.136719 44.972656 158.621094 44.042969 C 157.1875 43.167969 157.128906 42.910156 157.128906 36.445312 C 157.128906 33.171875 157.03125 30.367188 156.929688 30.1875 C 156.796875 30.027344 156.519531 29.878906 156.261719 29.878906 C 156.003906 29.878906 155.671875 30.027344 155.539062 30.1875 Z M 155.539062 30.1875 "/>
<path style=" stroke:none;fill-rule:nonzero;fill:rgb(0%,0%,0%);fill-opacity:1;" d="M 28.304688 30.445312 C 28.175781 30.652344 28.125 32.246094 28.203125 34.257812 C 28.28125 36.160156 28.304688 39.460938 28.230469 41.570312 C 28.097656 45.484375 28.230469 46.101562 29.074219 46.101562 C 30.046875 46.078125 30.152344 45.664062 30.152344 42.210938 L 30.152344 38.789062 L 33.617188 38.839844 L 37.078125 38.863281 L 37.078125 45.6875 L 37.773438 45.871094 C 39.054688 46.203125 39.054688 46.179688 39.105469 38.015625 L 39.132812 30.367188 L 38.515625 30.210938 C 37.234375 29.902344 37.078125 30.261719 37.183594 33.816406 L 37.257812 37.085938 L 34.308594 37.085938 C 32.667969 37.085938 31.179688 37.167969 30.972656 37.242188 C 30.355469 37.476562 29.738281 36.625 29.871094 35.722656 C 30.230469 33.402344 30.304688 30.851562 30.023438 30.492188 C 29.640625 30.054688 28.640625 30.027344 28.304688 30.445312 Z M 28.304688 30.445312 "/>
<path style=" stroke:none;fill-rule:nonzero;fill:rgb(0%,0%,0%);fill-opacity:1;" d="M 171.726562 30.46875 C 171.675781 30.652344 171.652344 34.152344 171.675781 38.273438 L 171.753906 45.71875 L 178.9375 45.71875 L 179.015625 45.019531 C 179.121094 44.148438 178.679688 44.015625 175.730469 44.089844 L 173.550781 44.171875 L 173.5 37.476562 C 173.476562 33.792969 173.449219 30.625 173.449219 30.445312 C 173.425781 30.027344 171.910156 30.027344 171.726562 30.46875 Z M 171.726562 30.46875 "/>
<path style=" stroke:none;fill-rule:nonzero;fill:rgb(0%,0%,0%);fill-opacity:1;" d="M 184.835938 30.46875 C 184.761719 30.652344 184.734375 34.152344 184.761719 38.246094 L 184.835938 45.71875 L 188.738281 45.792969 C 192.453125 45.84375 192.660156 45.84375 192.917969 45.328125 C 193.152344 44.914062 193.121094 44.6875 192.894531 44.40625 C 192.636719 44.089844 192.121094 44.066406 190.097656 44.199219 C 188.714844 44.300781 187.273438 44.300781 186.914062 44.199219 C 186.25 44.042969 186.25 44.015625 186.25 41.464844 C 186.25 39.585938 186.324219 38.890625 186.582031 38.863281 C 186.734375 38.863281 188.222656 38.839844 189.839844 38.8125 L 192.789062 38.761719 L 192.867188 38.089844 C 192.996094 37.011719 192.535156 36.859375 189.582031 37.085938 C 187.839844 37.21875 186.765625 37.191406 186.558594 37.011719 C 186.324219 36.828125 186.25 36.085938 186.300781 34.410156 L 186.375 32.066406 L 189.636719 31.988281 C 192.636719 31.9375 192.894531 31.882812 193.046875 31.398438 C 193.402344 30.285156 192.867188 30.136719 188.765625 30.136719 C 185.941406 30.136719 184.917969 30.210938 184.835938 30.46875 Z M 184.835938 30.46875 "/>
<path style=" stroke:none;fill-rule:nonzero;fill:rgb(0%,0%,0%);fill-opacity:1;" d="M 85.949219 51.230469 C 83.277344 51.613281 80.792969 53.699219 79.816406 56.351562 C 78.660156 59.441406 79.535156 63.257812 81.84375 65.242188 C 85.382812 68.277344 89.488281 68.199219 92.847656 65.035156 C 94.207031 63.769531 95.285156 61.425781 95.132812 60.140625 L 95.050781 59.46875 L 90.386719 59.367188 C 86.5625 59.289062 85.664062 59.339844 85.433594 59.648438 C 85.175781 59.933594 85.207031 60.140625 85.539062 60.628906 C 85.871094 61.144531 86.097656 61.246094 86.765625 61.144531 C 87.230469 61.09375 88.796875 60.988281 90.253906 60.9375 C 93.257812 60.835938 93.542969 61.011719 92.742188 62.433594 C 91.976562 63.769531 91.285156 64.386719 89.695312 65.183594 C 88.023438 66.039062 86.738281 66.039062 84.921875 65.242188 C 81.660156 63.796875 80.101562 59.523438 81.714844 56.457031 C 83.023438 53.929688 84.792969 52.800781 87.355469 52.800781 C 89.101562 52.800781 90.078125 53.210938 91.535156 54.601562 C 92.691406 55.683594 93.949219 55.992188 94.257812 55.246094 C 94.492188 54.628906 94.207031 54.238281 92.875 53.210938 C 90.460938 51.355469 88.636719 50.839844 85.949219 51.230469 Z M 85.949219 51.230469 "/>
<path style=" stroke:none;fill-rule:nonzero;fill:rgb(0%,0%,0%);fill-opacity:1;" d="M 155.207031 51.230469 C 153.773438 51.460938 152.847656 51.945312 151.335938 53.289062 C 149.59375 54.835938 148.792969 56.664062 148.792969 59.210938 C 148.792969 61.890625 149.359375 63.230469 151.335938 65.109375 C 154.390625 68.09375 157.929688 68.277344 161.492188 65.675781 C 162.210938 65.136719 162.957031 64.386719 163.160156 63.976562 C 163.367188 63.5625 163.648438 63.050781 163.824219 62.839844 C 163.984375 62.640625 164.316406 61.632812 164.523438 60.65625 C 164.90625 59.007812 164.882812 58.71875 164.496094 57.304688 C 163.289062 52.976562 159.621094 50.582031 155.207031 51.230469 Z M 159.136719 53.183594 C 160.851562 54.007812 162.441406 55.867188 162.75 57.4375 C 162.851562 57.921875 162.984375 58.644531 163.058594 59.007812 C 163.214844 59.675781 162.75 61.320312 162.058594 62.664062 C 161.136719 64.414062 158.800781 65.699219 156.519531 65.699219 C 155.773438 65.699219 155.03125 65.601562 154.875 65.441406 C 154.722656 65.292969 154.414062 65.160156 154.207031 65.160156 C 153.617188 65.160156 151.691406 63.207031 151.078125 62.019531 C 150.234375 60.371094 150.15625 58.570312 150.847656 57.046875 C 151.875 54.78125 153.03125 53.597656 154.824219 53.03125 C 155.796875 52.695312 158.335938 52.800781 159.136719 53.183594 Z M 159.136719 53.183594 "/>
<path style=" stroke:none;fill-rule:nonzero;fill:rgb(0%,0%,0%);fill-opacity:1;" d="M 28.203125 51.4375 C 28.203125 51.5625 28.203125 54.988281 28.175781 59.058594 C 28.175781 64.15625 28.28125 66.578125 28.457031 66.8125 C 28.691406 67.070312 29.433594 67.144531 31.5625 67.09375 C 35.875 66.964844 37.132812 66.554688 38.847656 64.644531 C 40.3125 63.023438 40.621094 62.042969 40.644531 59.234375 C 40.644531 57.074219 40.566406 56.632812 39.972656 55.476562 C 39.03125 53.648438 37.359375 52.257812 35.484375 51.6875 C 33.949219 51.253906 28.253906 51.046875 28.203125 51.4375 Z M 35.792969 53.574219 C 37.15625 54.1875 37.824219 54.960938 38.488281 56.664062 C 39.617188 59.46875 38.746094 62.898438 36.566406 64.4375 C 35.589844 65.136719 35.335938 65.183594 32.71875 65.242188 L 29.894531 65.292969 L 29.820312 59.265625 C 29.765625 54.960938 29.847656 53.160156 30.046875 53.03125 C 30.589844 52.695312 34.71875 53.082031 35.792969 53.574219 Z M 35.792969 53.574219 "/>
<path style=" stroke:none;fill-rule:nonzero;fill:rgb(0%,0%,0%);fill-opacity:1;" d="M 45.828125 51.460938 C 45.59375 51.84375 45.695312 66.679688 45.925781 66.835938 C 46.3125 67.09375 53.472656 67.222656 53.855469 66.988281 C 54.035156 66.863281 54.136719 66.449219 54.085938 66.039062 L 54.011719 65.292969 L 47.59375 65.292969 L 47.519531 62.609375 L 47.441406 59.933594 L 50.546875 60.0625 C 54.136719 60.214844 54.726562 60.007812 54.1875 58.851562 L 53.855469 58.152344 L 50.722656 58.234375 L 47.59375 58.335938 L 47.519531 55.683594 C 47.46875 53.316406 47.492188 53.058594 47.902344 53.058594 C 48.160156 53.03125 49.625 53.007812 51.164062 52.976562 C 53.445312 52.925781 54.011719 52.851562 54.214844 52.492188 C 54.421875 52.179688 54.394531 51.945312 54.164062 51.664062 C 53.878906 51.332031 53.164062 51.253906 49.882812 51.253906 C 47.726562 51.253906 45.902344 51.355469 45.828125 51.460938 Z M 45.828125 51.460938 "/>
<path style=" stroke:none;fill-rule:nonzero;fill:rgb(0%,0%,0%);fill-opacity:1;" d="M 63.5 51.84375 C 62.113281 52.566406 60.316406 54.472656 59.703125 55.890625 C 58.933594 57.640625 58.832031 60.320312 59.5 62.070312 C 60.117188 63.664062 61.550781 65.5 62.707031 66.140625 C 65.347656 67.554688 67.167969 67.785156 69.527344 66.964844 C 71.222656 66.371094 73.375 64.542969 73.992188 63.179688 C 74.222656 62.640625 74.53125 61.992188 74.65625 61.761719 C 74.964844 61.21875 74.992188 59.492188 74.738281 59.46875 C 73.199219 59.289062 65.476562 59.367188 65.246094 59.574219 C 64.730469 59.957031 64.863281 60.472656 65.503906 60.863281 C 65.9375 61.144531 66.761719 61.167969 69.273438 61.011719 C 71.042969 60.914062 72.582031 60.9375 72.707031 61.039062 C 73.171875 61.476562 72.53125 62.742188 71.273438 63.921875 C 70.558594 64.621094 69.785156 65.160156 69.503906 65.160156 C 69.246094 65.160156 68.992188 65.265625 68.910156 65.394531 C 68.554688 65.933594 66.605469 65.957031 65.144531 65.417969 C 60.757812 63.769531 59.367188 58.4375 62.421875 54.960938 C 63.804688 53.390625 65.039062 52.800781 66.960938 52.800781 C 68.886719 52.800781 69.941406 53.210938 71.402344 54.578125 C 72.757812 55.835938 73.890625 56.019531 73.890625 55.011719 C 73.890625 54.320312 72.015625 52.566406 70.351562 51.746094 C 68.992188 51.046875 64.9375 51.097656 63.5 51.84375 Z M 63.5 51.84375 "/>
<path style=" stroke:none;fill-rule:nonzero;fill:rgb(0%,0%,0%);fill-opacity:1;" d="M 100.3125 58.4375 C 100.3125 62.40625 100.261719 65.78125 100.1875 65.984375 C 99.878906 66.863281 100.414062 66.988281 104.417969 67.039062 C 107.882812 67.09375 108.367188 67.039062 108.625 66.65625 C 108.832031 66.296875 108.804688 66.089844 108.445312 65.75 C 108.058594 65.367188 107.523438 65.292969 104.984375 65.292969 L 101.976562 65.292969 L 101.976562 60.140625 L 105.132812 60.140625 C 108.316406 60.140625 108.753906 60.007812 108.78125 59.082031 C 108.78125 58.3125 108.007812 58.128906 105.210938 58.3125 C 102.953125 58.46875 102.390625 58.410156 102.136719 58.105469 C 101.929688 57.871094 101.851562 56.972656 101.902344 55.453125 L 101.976562 53.183594 L 104.800781 53.132812 C 108.214844 53.058594 108.78125 52.925781 108.78125 52.335938 C 108.78125 51.378906 108.289062 51.253906 104.234375 51.253906 L 100.3125 51.253906 Z M 100.3125 58.4375 "/>
<path style=" stroke:none;fill-rule:nonzero;fill:rgb(0%,0%,0%);fill-opacity:1;" d="M 114.34375 51.4375 C 114.269531 51.5625 114.167969 55.0625 114.136719 59.234375 C 114.085938 66.296875 114.113281 66.8125 114.578125 67.144531 C 115.167969 67.585938 115.320312 67.554688 115.726562 67.070312 C 116.089844 66.628906 116.089844 61.8125 115.726562 57.179688 C 115.574219 55.402344 115.601562 54.628906 115.832031 54.394531 C 116.089844 54.113281 116.292969 54.289062 116.859375 55.296875 C 117.242188 55.96875 118.265625 57.664062 119.140625 59.058594 C 121.039062 62.125 121.527344 62.867188 122.503906 64.519531 C 123.914062 66.863281 125.296875 67.84375 125.886719 66.914062 C 125.992188 66.730469 126.09375 65.242188 126.117188 63.613281 C 126.117188 61.992188 126.167969 58.570312 126.21875 56.019531 L 126.300781 51.378906 L 125.296875 51.378906 C 124.320312 51.378906 124.296875 51.40625 124.320312 52.285156 C 124.320312 52.773438 124.425781 55.710938 124.527344 58.777344 C 124.628906 62.585938 124.628906 64.386719 124.453125 64.386719 C 124.195312 64.386719 123.347656 63.179688 122.605469 61.761719 C 122.398438 61.378906 121.449219 59.78125 120.449219 58.210938 C 119.472656 56.632812 118.421875 54.960938 118.140625 54.523438 C 116.625 52.027344 116.035156 51.378906 115.269531 51.304688 C 114.832031 51.253906 114.394531 51.332031 114.34375 51.4375 Z M 114.34375 51.4375 "/>
<path style=" stroke:none;fill-rule:nonzero;fill:rgb(0%,0%,0%);fill-opacity:1;" d="M 132.046875 51.4375 C 131.941406 51.511719 131.863281 55.0625 131.863281 59.289062 C 131.863281 65.242188 131.941406 66.964844 132.199219 67.015625 C 134.613281 67.296875 139.585938 66.863281 140.535156 66.265625 C 141.613281 65.601562 143.15625 64.078125 143.589844 63.230469 C 143.820312 62.792969 144.15625 61.761719 144.332031 60.914062 C 144.746094 59.035156 144.382812 56.507812 143.511719 55.117188 C 142.847656 54.007812 141.714844 52.800781 141.40625 52.800781 C 141.28125 52.800781 141.023438 52.644531 140.867188 52.4375 C 140.25 51.6875 138.125 51.253906 135.121094 51.253906 C 133.53125 51.253906 132.121094 51.332031 132.046875 51.4375 Z M 139.175781 53.367188 C 141.332031 54.164062 142.640625 56.40625 142.640625 59.367188 C 142.640625 61.632812 142.148438 62.816406 140.714844 64.078125 C 139.585938 65.085938 139.074219 65.210938 136.046875 65.265625 L 133.613281 65.292969 L 133.582031 59.183594 C 133.53125 55.246094 133.613281 53.03125 133.789062 52.953125 C 134.304688 52.800781 138.410156 53.109375 139.175781 53.367188 Z M 139.175781 53.367188 "/>
<path style=" stroke:none;fill-rule:nonzero;fill:rgb(0%,0%,0%);fill-opacity:1;" d="M 169.703125 51.511719 C 169.628906 51.636719 169.523438 55.144531 169.523438 59.289062 C 169.496094 66.066406 169.523438 66.835938 169.910156 67.070312 C 170.21875 67.273438 170.472656 67.273438 170.804688 67.070312 C 171.21875 66.8125 171.242188 66.242188 171.136719 59.90625 L 171.0625 53.058594 L 173.117188 53.058594 C 174.5 53.058594 175.5 53.183594 176.066406 53.464844 C 179.171875 54.960938 177.757812 59.882812 174.375 59.316406 C 173.5 59.183594 173.425781 59.210938 173.425781 59.804688 C 173.425781 60.164062 173.601562 60.605469 173.808594 60.78125 C 174.011719 60.960938 174.191406 61.195312 174.191406 61.296875 C 174.191406 61.402344 174.652344 62.175781 175.191406 63 C 175.730469 63.847656 176.449219 65.007812 176.757812 65.601562 C 177.347656 66.78125 178.371094 67.609375 178.964844 67.378906 C 179.730469 67.070312 179.605469 66.449219 178.449219 64.929688 C 177.808594 64.078125 177.273438 63.332031 177.273438 63.257812 C 177.273438 63.179688 176.988281 62.691406 176.628906 62.175781 C 175.808594 60.988281 175.832031 60.863281 176.707031 60.65625 C 177.472656 60.496094 178.78125 59.289062 179.296875 58.285156 C 179.453125 57.976562 179.578125 57.097656 179.578125 56.324219 C 179.578125 55.246094 179.421875 54.703125 178.914062 53.929688 C 177.5 51.84375 176.089844 51.253906 172.527344 51.253906 C 171.035156 51.253906 169.777344 51.355469 169.703125 51.511719 Z M 169.703125 51.511719 "/>
<path style=" stroke:none;fill-rule:nonzero;fill:rgb(0%,0%,0%);fill-opacity:1;" d="M 184.917969 58.71875 C 184.867188 62.816406 184.890625 66.421875 184.96875 66.757812 C 185.117188 67.402344 185.660156 67.609375 186.222656 67.246094 C 186.53125 67.039062 186.609375 66.242188 186.609375 63.4375 L 186.632812 59.882812 L 187.65625 59.933594 C 188.222656 59.957031 189.558594 60.0625 190.664062 60.140625 C 192.480469 60.296875 192.636719 60.265625 192.789062 59.78125 C 192.867188 59.46875 192.867188 59.007812 192.789062 58.695312 C 192.613281 58.179688 192.480469 58.152344 189.605469 58.234375 L 186.632812 58.335938 L 186.558594 55.683594 C 186.480469 53.109375 186.507812 53.058594 187.066406 53.03125 C 187.40625 53.007812 188.789062 52.976562 190.199219 52.953125 C 192.253906 52.925781 192.789062 52.851562 192.996094 52.492188 C 193.203125 52.179688 193.175781 51.945312 192.945312 51.664062 C 192.660156 51.332031 191.945312 51.253906 188.789062 51.253906 L 184.992188 51.253906 Z M 184.917969 58.71875 "/>
<path style=" stroke:none;fill-rule:nonzero;fill:rgb(0%,0%,0%);fill-opacity:1;" d="M 325.082031 53.03125 C 325.132812 53.210938 325.265625 53.339844 325.363281 53.339844 C 325.671875 53.316406 325.597656 52.953125 325.289062 52.824219 C 325.105469 52.773438 325.007812 52.875 325.082031 53.03125 Z M 325.082031 53.03125 "/>
</g>
</svg>
